<?xml version="1.0" encoding="UTF-8" standalone="no"?><!-- Generator: Gravit.io --><svg xmlns="http://www.w3.org/2000/svg" xmlns:xlink="http://www.w3.org/1999/xlink" style="isolation:isolate" viewBox="-550.684 -1324.719 3349.506 750.523" width="3349.506pt" height="750.523pt"><defs><clipPath id="_clipPath_DKP6cJ1C42tjJ35xARfyNEP0iRaSbTL2"><rect x="-550.684" y="-1324.719" width="3349.506" height="750.523"/></clipPath></defs><g clip-path="url(#_clipPath_DKP6cJ1C42tjJ35xARfyNEP0iRaSbTL2)"><text transform="matrix(1.372,0,0,1.372,253.677,-747.034)" style="font-family:'EB Garamond Medium';font-weight:400;font-size:418px;font-style:normal;fill:#ffffff;stroke:none;">Integral Ed</text><g><path d=" M -222.005 -606.191 C -40.603 -606.191 106.675 -753.468 106.675 -934.87 C 106.675 -1116.272 -40.603 -1263.55 -222.005 -1263.55 C -403.407 -1263.55 -550.684 -1116.272 -550.684 -934.87 C -550.684 -753.468 -403.766 -606.191 -222.005 -606.191 L -222.005 -606.191 Z  M -381.665 -731.546 C -385.952 -735.272 -387.582 -740.15 -386.991 -745.505 C -386.203 -752.646 -383.51 -757.408 -378.513 -760.11 C -373.517 -762.811 -368.361 -763.688 -363.363 -763.136 C -357.65 -762.506 -353.484 -760.962 -351.617 -758.227 C -349.75 -755.491 -348.28 -752.438 -347.167 -749.424 C -346.451 -746.092 -345.655 -743.475 -345.217 -740.897 C -344.778 -738.318 -343.111 -737.05 -340.969 -736.814 C -339.184 -736.617 -336.606 -737.055 -333.274 -737.772 C -329.943 -738.489 -326.453 -740.633 -322.528 -743.453 C -318.603 -746.272 -314.482 -750.877 -310.202 -756.91 C -305.923 -762.943 -301.446 -770.761 -297.051 -781.118 C -295.15 -785.245 -293.249 -789.372 -291.745 -793.181 C -290.201 -797.348 -289.093 -800.839 -288.064 -803.617 C -280.227 -825.52 -269.934 -853.296 -257.941 -886.666 C -245.59 -919.997 -231.339 -957.455 -214.194 -998.208 C -209.799 -1008.565 -206.354 -1016.858 -203.424 -1023.763 C -200.533 -1030.311 -197.682 -1036.501 -195.306 -1041.66 C -189.603 -1054.041 -182.869 -1065.946 -174.746 -1077.338 C -166.623 -1088.729 -157.904 -1098.97 -147.914 -1107.625 C -138.281 -1116.32 -127.774 -1123.112 -116.433 -1127.643 C -105.052 -1132.531 -93.311 -1134.127 -81.171 -1132.787 C -72.602 -1131.842 -66.412 -1128.991 -62.204 -1124.551 C -57.995 -1120.112 -56.404 -1114.877 -57.035 -1109.164 C -57.665 -1103.451 -60.359 -1098.689 -64.68 -1095.552 C -69.041 -1092.057 -74.237 -1090.824 -80.306 -1091.493 C -86.733 -1092.202 -90.86 -1094.103 -93.084 -1096.878 C -95.307 -1099.653 -96.777 -1102.707 -97.494 -1106.038 C -98.211 -1109.37 -98.61 -1112.305 -99.008 -1115.24 C -99.407 -1118.175 -100.678 -1119.761 -103.178 -1120.037 C -105.32 -1120.273 -107.898 -1119.835 -110.951 -1118.365 C -114.004 -1116.894 -117.494 -1114.75 -121.14 -1111.177 C -124.787 -1107.604 -128.909 -1102.999 -133.228 -1096.609 C -137.507 -1090.576 -141.666 -1082.362 -145.983 -1072.719 C -147.408 -1069.624 -149.23 -1066.211 -150.695 -1062.758 C -152.16 -1059.306 -153.665 -1055.497 -155.566 -1051.37 C -160.118 -1039.585 -164.671 -1027.8 -168.47 -1016.293 C -172.27 -1004.786 -176.941 -991.93 -182.165 -977.328 C -187.351 -963.083 -193.565 -946.06 -200.691 -927.331 C -207.856 -908.245 -216.883 -885.389 -227.732 -859.12 C -231.058 -851.898 -234.067 -844.279 -237.394 -837.057 C -240.363 -829.796 -243.729 -822.216 -247.413 -815.033 C -263.573 -783.207 -281.008 -759.472 -299.363 -743.788 C -318.074 -728.144 -339.41 -721.463 -363.689 -724.142 C -371.901 -725.048 -378.131 -727.542 -381.665 -731.546 Z " fill-rule="evenodd" fill="rgb(255,255,255)"/></g></g></svg>