<?xml version="1.0" encoding="UTF-8" standalone="no"?><!-- Generator: Gravit.io --><svg xmlns="http://www.w3.org/2000/svg" xmlns:xlink="http://www.w3.org/1999/xlink" style="isolation:isolate" viewBox="2457.687 -3732.315 3000 3000" width="3000pt" height="3000pt"><defs><clipPath id="_clipPath_mvHWmtAwIEDZpIAfGJuTFJBOwph1iIND"><rect x="2457.687" y="-3732.315" width="3000" height="3000"/></clipPath></defs><g clip-path="url(#_clipPath_mvHWmtAwIEDZpIAfGJuTFJBOwph1iIND)"><g><path d=" M 3957.687 -732.315 C 4785.556 -732.315 5457.687 -1404.446 5457.687 -2232.315 C 5457.687 -3060.184 4785.556 -3732.315 3957.687 -3732.315 C 3129.818 -3732.315 2457.687 -3060.184 2457.687 -2232.315 C 2457.687 -1404.446 3128.178 -732.315 3957.687 -732.315 L 3957.687 -732.315 Z  M 3229.044 -1333.912 C 3209.478 -1350.914 3202.039 -1373.175 3204.735 -1397.617 C 3208.331 -1430.206 3220.624 -1451.94 3243.425 -1464.268 C 3266.226 -1476.596 3289.757 -1480.597 3312.57 -1478.08 C 3338.641 -1475.204 3357.655 -1468.159 3366.174 -1455.674 C 3374.692 -1443.189 3381.401 -1429.254 3386.481 -1415.5 C 3389.752 -1400.296 3393.381 -1388.35 3395.382 -1376.584 C 3397.383 -1364.818 3404.991 -1359.031 3414.767 -1357.953 C 3422.914 -1357.054 3434.68 -1359.054 3449.884 -1362.325 C 3465.089 -1365.595 3481.013 -1375.384 3498.925 -1388.251 C 3516.838 -1401.118 3535.649 -1422.133 3555.18 -1449.666 C 3574.71 -1477.198 3595.139 -1512.878 3615.197 -1560.144 C 3623.872 -1578.978 3632.547 -1597.813 3639.413 -1615.197 C 3646.459 -1634.212 3651.516 -1650.147 3656.212 -1662.823 C 3691.979 -1762.782 3738.95 -1889.544 3793.686 -2041.837 C 3850.05 -2193.95 3915.09 -2364.898 3993.333 -2550.882 C 4013.392 -2598.148 4029.113 -2635.996 4042.485 -2667.507 C 4055.678 -2697.389 4068.69 -2725.64 4079.533 -2749.183 C 4105.559 -2805.686 4136.293 -2860.021 4173.364 -2912.007 C 4210.436 -2963.993 4250.227 -3010.731 4295.817 -3050.232 C 4339.778 -3089.913 4387.729 -3120.907 4439.489 -3141.586 C 4491.429 -3163.893 4545.01 -3171.176 4600.411 -3165.064 C 4639.518 -3160.75 4667.77 -3147.737 4686.975 -3127.476 C 4706.18 -3107.215 4713.441 -3083.324 4710.564 -3057.253 C 4707.688 -3031.181 4695.394 -3009.447 4675.673 -2995.13 C 4655.772 -2979.184 4632.06 -2973.553 4604.359 -2976.609 C 4575.029 -2979.845 4556.194 -2988.52 4546.046 -3001.185 C 4535.899 -3013.849 4529.19 -3027.784 4525.919 -3042.988 C 4522.649 -3058.193 4520.828 -3071.588 4519.008 -3084.983 C 4517.187 -3098.378 4511.388 -3105.615 4499.981 -3106.874 C 4490.205 -3107.952 4478.439 -3105.952 4464.505 -3099.242 C 4450.57 -3092.533 4434.646 -3082.745 4418.004 -3066.439 C 4401.361 -3050.133 4382.55 -3029.118 4362.84 -2999.956 C 4343.309 -2972.423 4324.329 -2934.934 4304.631 -2890.928 C 4298.125 -2876.802 4289.809 -2861.227 4283.124 -2845.471 C 4276.438 -2829.716 4269.571 -2812.331 4260.897 -2793.497 C 4240.119 -2739.713 4219.342 -2685.929 4202.004 -2633.415 C 4184.665 -2580.902 4163.348 -2522.23 4139.503 -2455.59 C 4115.838 -2390.58 4087.477 -2312.894 4054.956 -2227.42 C 4022.256 -2140.317 3981.061 -2036.008 3931.551 -1916.124 C 3916.37 -1883.164 3902.638 -1848.395 3887.456 -1815.435 C 3873.905 -1782.294 3858.544 -1747.705 3841.733 -1714.924 C 3767.984 -1569.676 3688.413 -1461.355 3604.648 -1389.781 C 3519.255 -1318.387 3421.882 -1287.897 3311.078 -1300.122 C 3273.601 -1304.256 3245.17 -1315.64 3229.044 -1333.912 Z " fill-rule="evenodd" fill="rgb(166,163,173)"/></g></g></svg>