<?xml version="1.0" encoding="UTF-8"?>
<svg id="Layer_1" data-name="Layer 1" xmlns="http://www.w3.org/2000/svg" viewBox="0 0 510.09 210.23">
  <defs>
    <style>
      .cls-1 {
        fill: none;
      }

      .cls-2 {
        fill: #0d0319;
      }

      .cls-3 {
        fill: #4131e3;
      }
    </style>
  </defs>
  <rect class="cls-1" x="-.03" y=".31" width="509.9" height="210.12"/>
  <g>
    <g>
      <path class="cls-2" d="M54.74,92.94h47.59c12.04,0,15.12.37,19.04,2.33,6.25,3.08,8.59,8.77,8.59,20.53s-2.15,18.01-7.28,21.18c-3.64,2.24-7.84,2.89-18.66,2.89h-30.42v15.3h-18.85v-62.25ZM101.12,124.76c7.75,0,9.99-1.68,9.99-7.56,0-7.47-1.87-9.15-9.99-9.15h-27.53v16.7h27.53Z"/>
      <path class="cls-2" d="M143.39,92.94h18.94v46.85h42.83v15.4h-61.78v-62.25Z"/>
      <path class="cls-2" d="M228.03,108.34h-27.72v-15.4h74.38v15.4h-27.72v46.85h-18.94v-46.85Z"/>
      <path class="cls-2" d="M303.06,92.94l18.1,47.41,16.05-47.41h22.86l15.58,47.41,18.66-47.41h19.22l-25.76,62.25h-25.38l-13.81-44.79-14.47,44.79h-25.2l-25.1-62.25h19.22Z"/>
    </g>
    <polygon class="cls-3" points="455.09 55.29 455.09 96.03 441.31 110.38 441.31 69.06 399.99 69.06 414.34 55.29 455.09 55.29"/>
  </g>
</svg>