<?xml version="1.0" encoding="UTF-8"?>
<svg id="Layer_2" data-name="Layer 2" xmlns="http://www.w3.org/2000/svg" viewBox="0 0 1000 1000">
  <defs>
    <style>
      .cls-1 {
        stroke-width: .64px;
      }

      .cls-1, .cls-2, .cls-3 {
        fill: #fff;
        fill-rule: evenodd;
        opacity: .45;
        stroke: #fff;
        stroke-linejoin: bevel;
      }

      .cls-2 {
        stroke-width: .79px;
      }

      .cls-3 {
        stroke-width: .99px;
      }

      .cls-4 {
        fill: #4dadb3;
      }
    </style>
  </defs>
  <g id="Layer_1-2" data-name="Layer 1">
    <g>
      <rect class="cls-4" width="1000" height="1000" rx="120.83" ry="120.83"/>
      <g>
        <path id="Ellipse" class="cls-3" d="M726.14,405.65c-72.11-.33-130.13-58.88-129.8-130.99.34-72.1,58.89-130.12,130.99-129.79,72.11.33,130.13,58.88,129.79,130.99-.33,72.1-58.88,130.12-130.98,129.79Z"/>
        <path id="Ellipse-2" data-name="Ellipse" class="cls-3" d="M515.12,436.83c-100.05-.46-180.55-81.69-180.09-181.74.46-100.04,81.7-180.55,181.74-180.08,100.04.46,180.55,81.69,180.09,181.74-.47,100.04-81.7,180.55-181.74,180.08Z"/>
        <path id="Ellipse-3" data-name="Ellipse" class="cls-3" d="M340.47,418.01c-90.79-.41-163.84-74.13-163.43-164.92.42-90.79,74.14-163.84,164.93-163.43,90.78.42,163.83,74.14,163.42,164.93-.42,90.79-74.13,163.84-164.92,163.42Z"/>
        <path id="Ellipse-4" data-name="Ellipse" class="cls-3" d="M675.42,643.91c-104.11-.48-187.87-85.01-187.39-189.11.49-104.1,85.01-187.86,189.11-187.38,104.1.48,187.86,85.01,187.38,189.1-.48,104.11-85.01,187.87-189.1,187.39Z"/>
        <path id="Ellipse-5" data-name="Ellipse" class="cls-3" d="M216.02,460.89c-72.11-.34-130.13-58.89-129.8-130.99.34-72.11,58.89-130.13,130.99-129.79,72.11.33,130.13,58.88,129.8,130.98-.34,72.11-58.89,130.13-130.99,129.8h0Z"/>
        <path id="Ellipse-6" data-name="Ellipse" class="cls-3" d="M560.17,733.84c-72.11-.33-130.13-58.88-129.8-130.99.34-72.1,58.89-130.13,130.99-129.79,72.11.33,130.13,58.88,129.79,130.99-.33,72.1-58.88,130.12-130.98,129.79Z"/>
        <path id="Ellipse-7" data-name="Ellipse" class="cls-3" d="M329.83,687.55c-99.56-.46-179.65-81.29-179.2-180.84.46-99.55,81.29-179.65,180.84-179.2,99.55.46,179.65,81.29,179.2,180.84-.46,99.56-81.29,179.65-180.84,179.2Z"/>
        <path id="Ellipse-8" data-name="Ellipse" class="cls-2" d="M862.66,843.33c-28.28,0-51.13-22.86-51.13-51.13s22.85-51.13,51.13-51.13,51.12,22.86,51.12,51.13-22.85,51.13-51.12,51.13Z"/>
        <path id="Ellipse-9" data-name="Ellipse" class="cls-3" d="M773.8,755.37c-44.2,0-79.93-35.73-79.93-79.93s35.73-79.93,79.93-79.93,79.94,35.73,79.94,79.93-35.73,79.93-79.94,79.93Z"/>
        <path id="Ellipse-10" data-name="Ellipse" class="cls-1" d="M882.35,925c-17.38,0-31.44-14.05-31.44-31.44s14.05-31.43,31.44-31.43,31.43,14.05,31.43,31.43-14.05,31.44-31.43,31.44Z"/>
      </g>
    </g>
  </g>
</svg>