<?xml version="1.0" encoding="UTF-8"?>
<svg id="Layer_2" data-name="Layer 2" xmlns="http://www.w3.org/2000/svg" viewBox="0 0 1000 1000">
  <defs>
    <style>
      .cls-1 {
        fill: none;
        opacity: .45;
        stroke: #fff;
        stroke-linejoin: bevel;
        stroke-width: 38.87px;
      }

      .cls-2 {
        fill: #b8357b;
      }
    </style>
  </defs>
  <g id="Layer_1-2" data-name="Layer 1">
    <g>
      <rect class="cls-2" width="1000" height="1000" rx="120.83" ry="120.83"/>
      <g>
        <path id="Ellipse" class="cls-1" d="M285.97,542.42c-116.66,0-210.97-94.31-210.97-210.97s94.31-210.98,210.97-210.98,210.98,94.31,210.98,210.98-94.31,210.97-210.98,210.97Z"/>
        <path id="Ellipse-2" data-name="Ellipse" class="cls-1" d="M714.03,542.42c-116.67,0-210.98-94.31-210.98-210.97s94.31-210.98,210.98-210.98,210.97,94.31,210.97,210.98-94.31,210.97-210.97,210.97Z"/>
        <path id="Ellipse-3" data-name="Ellipse" class="cls-1" d="M357.93,683.89c-96.79,0-175.05-78.25-175.05-175.05s78.25-175.05,175.05-175.05,175.05,78.24,175.05,175.05-78.24,175.05-175.05,175.05Z"/>
        <path id="Ellipse-4" data-name="Ellipse" class="cls-1" d="M642.06,683.89c-96.8,0-175.05-78.25-175.05-175.05s78.24-175.05,175.05-175.05,175.05,78.24,175.05,175.05-78.25,175.05-175.05,175.05Z"/>
        <path id="Ellipse-5" data-name="Ellipse" class="cls-1" d="M415.63,764.14c-62.7,0-113.39-50.68-113.39-113.38s50.68-113.39,113.39-113.39,113.39,50.68,113.39,113.39-50.68,113.38-113.39,113.38h0Z"/>
        <path id="Ellipse-6" data-name="Ellipse" class="cls-1" d="M584.37,764.14c-62.7,0-113.39-50.68-113.39-113.38s50.68-113.39,113.39-113.39,113.39,50.68,113.39,113.39-50.68,113.38-113.39,113.38Z"/>
        <path id="Ellipse-7" data-name="Ellipse" class="cls-1" d="M500,879.53c-44.17,0-79.88-35.71-79.88-79.89s35.71-79.88,79.88-79.88,79.88,35.71,79.88,79.88-35.71,79.89-79.88,79.89Z"/>
      </g>
    </g>
  </g>
</svg>