<svg xmlns="http://www.w3.org/2000/svg" width="124.581" height="44.508" viewBox="0 0 124.581 44.508">
  <g id="Group_54" data-name="Group 54" transform="translate(13645.581 21780.754)">
    <path id="Path_5" data-name="Path 5" d="M188.146,34.295h4.8a2.3,2.3,0,0,1,2.3,2.3V58.873h16.082v3.846a2.3,2.3,0,0,1-2.3,2.3H188.146Z" transform="translate(-13793.354 -21807.688)" fill="#002891"/>
    <path id="Path_6" data-name="Path 6" d="M323.886,34.295h22.033a2.3,2.3,0,0,1,2.3,2.3v3.714h-17.28V46.54h15.207v3.714a2.3,2.3,0,0,1-2.3,2.3H330.937V59h17.511v3.714a2.3,2.3,0,0,1-2.3,2.3H323.886Z" transform="translate(-13899.968 -21807.688)" fill="#2487c1"/>
    <path id="Path_7" data-name="Path 7" d="M466.114,34.295h22.033a2.3,2.3,0,0,1,2.3,2.3v3.714h-17.28V46.54h15.207v3.714a2.3,2.3,0,0,1-2.3,2.3H473.165V59h17.511v3.714a2.3,2.3,0,0,1-2.3,2.3H466.114Z" transform="translate(-14011.676 -21807.688)" fill="#00a475"/>
    <path id="Path_8" data-name="Path 8" d="M39.564,29l3.292,3.292a11,11,0,0,1,15.553,0L61.7,29a2.144,2.144,0,0,0-.19-3.214,17.831,17.831,0,0,0-5.779-2.933,5.133,5.133,0,0,1-10.115-.025,17.872,17.872,0,0,0-7.679,4.547,18.067,18.067,0,0,0-1.557,1.778A2.144,2.144,0,0,1,39.564,29" transform="translate(-13674.157 -21798.68)" fill="#2487c1"/>
    <path id="Path_9" data-name="Path 9" d="M32.162,56.674q.145-.228.3-.453c-.1.15-.2.3-.3.453" transform="translate(-13670.843 -21824.908)" fill="#002891"/>
    <path id="Path_10" data-name="Path 10" d="M34.308,53.593q.148-.211.3-.417-.155.207-.3.417" transform="translate(-13672.528 -21822.518)" fill="#002891"/>
    <path id="Path_11" data-name="Path 11" d="M29.9,59.88q.172-.305.358-.606-.185.3-.358.606" transform="translate(-13669.063 -21827.307)" fill="#002891"/>
    <path id="Path_12" data-name="Path 12" d="M27.511,63.049c-.056.111-.1.215-.148.316.16-.335.327-.667.509-.993-.125.224-.246.449-.361.677" transform="translate(-13667.073 -21829.74)" fill="#002891"/>
    <path id="Path_13" data-name="Path 13" d="M29.738,62.157l.034-.059-.034.059" transform="translate(-13668.938 -21829.525)" fill="#2487c1"/>
    <path id="Path_14" data-name="Path 14" d="M31.564,58.534c.042-.068.085-.135.128-.2-.043.067-.086.135-.128.2" transform="translate(-13670.373 -21826.566)" fill="#2487c1"/>
    <path id="Path_15" data-name="Path 15" d="M33.548,55.357q.08-.118.163-.236-.083.117-.163.236" transform="translate(-13671.932 -21824.045)" fill="#2487c1"/>
    <path id="Path_16" data-name="Path 16" d="M52.2,170.019c.107.083.216.159.324.232-.121-.087-.242-.172-.361-.262l.037.03" transform="translate(-13686.551 -21914.264)" fill="#2487c1"/>
    <path id="Path_17" data-name="Path 17" d="M35.831,52.336c-.038.05-.072.1-.11.151.047-.063.094-.126.142-.188-.01.013-.022.024-.032.038" transform="translate(-13673.638 -21821.828)" fill="#2487c1"/>
    <path id="Path_18" data-name="Path 18" d="M31.865,68.113a11,11,0,0,1,0-15.553l-3.292-3.292a2.144,2.144,0,0,0-3.182.152c-.048.062-.095.126-.142.188-.1.138-.2.277-.3.417q-.082.117-.163.236-.153.225-.3.453c-.043.068-.086.135-.128.2q-.185.3-.358.606l-.034.059c-.182.326-.349.658-.509.993a17.925,17.925,0,0,0-1.068,2.8,5.132,5.132,0,0,1,.064,10.137,17.867,17.867,0,0,0,4.5,7.517,20.236,20.236,0,0,0,1.75,1.58,2.178,2.178,0,0,1-.125-3.205Z" transform="translate(-13663.165 -21818.949)" fill="#002891"/>
    <path id="Path_19" data-name="Path 19" d="M51.84,169.732l.033.024-.079-.064c.016.013.03.027.046.04" transform="translate(-13686.262 -21914.031)" fill="#68b984"/>
    <path id="Path_20" data-name="Path 20" d="M71,142.7l-3.189-3.189a11.02,11.02,0,0,1-15.656-.1L48.861,142.7a2.178,2.178,0,0,0,.125,3.205l.079.064c.119.09.24.175.361.262a17.752,17.752,0,0,0,5.524,2.68,5.132,5.132,0,0,1,10.037-.048,17.906,17.906,0,0,0,5.823-2.949A2.144,2.144,0,0,0,71,142.7" transform="translate(-13683.454 -21890.248)" fill="#00a475"/>
    <path id="Path_21" data-name="Path 21" d="M88.283,0a4.021,4.021,0,1,0,2.845,1.177A4.011,4.011,0,0,0,88.283,0" transform="translate(-13711.763 -21780.752)" fill="#2487c1"/>
    <path id="Path_22" data-name="Path 22" d="M4.022,84.961a4.02,4.02,0,1,0,2.845,1.176,4.011,4.011,0,0,0-2.845-1.176" transform="translate(-13645.582 -21847.482)" fill="#002891"/>
    <path id="Path_23" data-name="Path 23" d="M88.283,169.922a4.021,4.021,0,1,0,2.845,1.176,4.011,4.011,0,0,0-2.845-1.176" transform="translate(-13711.763 -21914.211)" fill="#00a475"/>
  </g>
</svg>
